<?xml version="1.0" encoding="UTF-8"?><svg id="Layer_1" xmlns="http://www.w3.org/2000/svg" viewBox="0 0 3595.3 2154.8"><defs><style>.cls-1{fill:none;}.cls-2{fill:#fff;}</style></defs><g id="a"><polygon points="11.7 2154.8 3595.3 2154.8 3595.3 0 0 0 11.7 2154.8"/></g><g><path class="cls-1" d="M2033.8,619.3c-6.6,2.6-13.1,5.6-19.7,8.9-25.4,12.9-49.2,28.8-74.5,45.7-11.5,7.7-23.3,15.6-35.3,23.2-26.4,16.7-60.7,32.6-96.5,44.6-27.6,9.3-68.7,20.5-107,20.8-1.2,0-2.5,0-3.7,0-70.8,0-136.1-16.7-194.3-49.7-.1,0-.3-.2-.4-.2,.3,.3,.7,.6,1,1,9.6,9.8,43.2,46,73,103.1,13.7,26.3,24.7,53.3,32.7,80.3,9.4,31.8,14.5,63.9,15.4,95.3,.4,12.7,1.6,18.8,2.4,21.6,1.7,.2,4.6,.5,9.4,.5s7.3-.1,12.9-.4c85.6-3.8,169.8-4.6,269.8-4.6s37.3,0,55.5,0c18.2,0,37,0,55.4,0s16.3-1.2,17-1.5c2.5-2.3,8.1-13.6,12.5-22.8,1.4-2.8,2.7-5.6,4.3-8.7,23.6-64,35.3-105.8,56.7-191.9-15.2-1.8-32.3-4.9-46.8-10.3-19.8-7.3-36.4-20.6-48-38.3-11.4-17.3-17-38.1-15.8-58.4,1.2-21.4,9.5-41.3,24-58.2h0Zm-271.9,386.7c-5.1-123-36.9-213.6-28.3-218.1,12.1-6.3,16.7,5.9,19.6,14.5,14.2,42.6,30.5,183.1,8.7,203.6h0Zm158.2-25c-.8,11.1-11.5-7.9-12.7-15.5-4.4-28.1,9.6-198.4,35.7-212.5,8.3-4.5-12.1,80.9-23,228.1Z"/><path class="cls-1" d="M2134.6,649.7h0c-.2,0-.5,0-.8,0-12.3,.4-22.8,3.3-29.4,8.1-4.2,3-9,8.1-9.2,20.5-.1,6.9,1.9,12.2,6.4,16.8,7.2,7.3,20.2,12.3,36.8,14.4,1.6-8.1,3.1-17.7,3.7-27.3,1.5-22.2-2.8-30.9-4.1-32.1-.2,0-1.2-.4-3.4-.4h0Z"/><path class="cls-1" d="M1724.7,554.1c-2.3,.5-4.5,.8-6.8,.8-12,0-23.2-7.3-27.8-18.8-2.4-6.1-9.6-23.6-13.7-31.8-14.4-29-44-47.7-75.4-47.7s-41.7,9.2-55.1,26c-12.9,16-19.1,33.7-16.6,47.3,2,10.7,9.2,19.5,22.2,27.2,3.6,1.9,23.8,11.9,27.4,13.5,22.2,9.2,46.8,14.9,75.3,17.3,13.5,1.2,25.6,1.7,36.9,1.7,37.9,0,68.4-6.5,96-20.5,24.1-12.2,47.9-26.7,68.8-39.4,14-8.5,28.6-17.2,43.6-25.5-53-20.5-100.2-54.9-141.1-102.9-9.5-11.1-18.2-22.8-26.5-34-7.7-10.4-15-20.1-22.8-29.4-19.9-23.7-39.9-34.8-63-34.8h-1c-18.6,.3-29.4,7.5-36.1,24.4-2.6,6.5-4.1,13.5-5.1,20,45.9,6,83.6,29.4,109.2,67.7,10.5,15.6,18.8,33.6,24.8,53.3,5.2,17.2,8.6,35.4,10,54.1,1.1,14.8-8.7,28.1-23.1,31.5h0Z"/><path d="M2199.3,512.2c-23-12.1-47.3-19.6-72.3-24.8-10.6-2.2-22-.8-34.8-7.3,35.6-17.4,61.4-42.6,70.3-82.7,8.6-38.7,6.2-76.6-17-109.5-23.1-32.6-61.6-51.9-94.2-51.9s-29.9,4.4-40.4,13.9c1.6,0,3.2-.1,4.8-.1,32,0,58.6,13.1,79.7,39,17.8,21.7,23.8,47.4,16.1,75.8-7.6,27.9-26.5,41.6-51.5,46.2-10.2,1.9-20.7,3.7-31.1,3.7s-2.2,0-3.4,0c-59.7-2.4-114.6-20.5-163-59.9-30.9-25.1-55.3-57.5-83.5-85.6-31.1-30.9-66.7-52.6-106.8-52.7-9.3,0-18.9,1.2-28.8,3.7-89,22.8-94.3,100.2-71.1,153.6,.9-1.2-8.7-99.5,72.1-100.6,.5,0,1,0,1.5,0,35.3,0,63,18.1,86,45.5,17.1,20.4,32,43,49.2,63.2,54,63.5,120.2,101.9,199.6,112.1,2,.3,4,.6,6.1,2-40.6,15.4-78.4,36.7-115.6,59.3-23.3,14.2-46.6,28.2-70.8,40.5-35.4,17.9-72.1,23.7-109.5,23.7s-26.2-.7-39.4-1.8c-28.9-2.5-57.3-8.3-84.5-19.6-2.4-1-27.6-13.5-30.5-15.1-51.3-30-44.8-81.1-14.1-119.3,20.3-25.2,49.2-37.2,78.5-37.2s81.6,22.6,102.3,64.4c5.5,11,14.6,34,14.6,34-4.6-61.7-35.4-137-118.4-147.6-2.8-.4-12.6-1.9-24.8-1.9s-15.3,.5-23.3,2.1c-27.5,4.4-51.7,16.8-73.4,35.7-54,47-71.6,134.8-38.8,196.7,18.4,34.8,46.4,58.5,78.4,76.7,56.3,31.9,117,45.8,179.5,45.8s2.3,0,3.5,0c58-.5,140-30.5,187.8-60.8,37.3-23.6,73-50.3,112.2-70.2,34.6-17.6,70.1-26.7,106.1-26.7s45.2,3.5,68.1,10.7c38.3,12,60.7,40.9,57,84.5-1.9,22.1-15.3,41.8-29.6,56.7,8.8-71.6,2.7-126.2-53.4-126.2s-18.6,1.3-29.8,4.1c-106.5,26.1-92.6,120.1-35,141.4,22.3,8.3,53.8,10.2,67.4,10.7,3.4,.1,5.8,3.7,4.9,7.2-25.8,104.7-38,150.9-64.9,224,0,.2-.2,.4-.2,.6-20.4,41.1-21.5,50.9-61.3,50.9s-73.9,0-110.9,0c-89.5,0-179.1,.6-268.5,4.6-5.1,.2-9.9,.4-14.2,.4-29.5,0-40.5-7.4-41.8-51.3-3.5-123.7-78.2-223.6-112.5-258.5-1.1-1.1-2.4-1.6-3.6-1.6-3.5,0-6.6,3.9-4.9,8.1,22,54.3,79.6,206.2,65,274.6-17.1,79.8,44.3,95,73.7,96.7,6.1,.3,18.8,.5,36,.5,95,0,329.2-4.6,369.2-5.2,82.8-1.2,105.6-19.1,128.2-107.5,17.2-67.2,32.7-135.1,45.4-203.6,2.9-15.6,5.6-31,7.9-45.9,37-11.5,90-44,79.8-135-3.4-30.1-24.4-74.6-79.2-103.4h0Zm-36.5,224.3c-.7,2.4-2.7,4.1-5,4.1h-.8c-57.7,0-92.4-24.3-91.7-62.8,.7-41.9,34.3-57,67.6-58.1,.6,0,1.2,0,1.8,0,57.4,0,34,95.8,28.2,116.9h0Z"/><g><path class="cls-2" d="M2308.3,612.3c-2.5-21.9-11.4-45.2-25.3-65.7-17-25-40.5-45.5-69.8-60.9-15.8-8.3-32.8-15-51.5-20.5,14.9-17.4,25-37.9,30.1-61.1,11.5-51.8,4.2-96.6-21.8-133.3-13.7-19.4-32.4-35.7-53.9-47.3-21.1-11.3-43.5-17.3-64.8-17.3s-44.9,7.5-60.5,21.7c-9.3,8.5-12.4,21.9-7.6,33.6,4.6,11.3,15.6,18.6,27.8,18.6s.8,0,1.2,0c1.2,0,2.4,0,3.6,0,23,0,40.9,8.9,56.5,28,12,14.6,15.4,30.7,10.4,49-3.9,14.5-12,21.6-28.1,24.6-9.1,1.7-18,3.2-25.6,3.2s-1.5,0-2.1,0c-56.5-2.3-104.1-19.7-145.3-53.2-17.6-14.4-33.3-31.7-49.9-50-10-11.1-20.4-22.6-31.4-33.5-18.7-18.6-38-33.2-57.3-43.3-23-12-46.8-18.1-70.7-18.1-12,0-24.2,1.6-36.2,4.6-55.1,14.1-80.7,45.6-92.4,69.5-9.5,19.4-13.9,41.2-12.9,64.8,.3,8.3,1.4,16.6,3,25-27.2,6.6-52.6,20.1-75.6,40.1-31.1,27.1-53,66-61.7,109.6-8.7,43.9-3,87.8,16,123.8,17,32.1,42.2,58.6,76.8,80.7-3.5-1.2-7.2-1.8-11-1.8-11.7,0-22.6,5.9-29.2,15.7-6.7,9.9-8,22.5-3.4,33.7,10.4,25.7,30.1,76.7,45.2,129,22.8,79.2,21.2,114.2,18.2,128.1-4,18.7-4.7,36.1-2,51.7,2.6,15.2,8.5,28.8,17.3,40.5,10.9,14.3,26,25.2,44.9,32.3,15.9,6,31.1,7.9,41,8.5,6.5,.4,18.8,.6,37.7,.6,73.8,0,231.8-2.8,316.7-4.3,24.5-.4,43.9-.8,52.9-.9,43.8-.6,78.5-5.6,105.4-28,26.7-22.2,39.9-56.9,51.4-102.2,18.9-73.8,33.8-141,45.8-205.6,2.1-11.2,3.8-20.7,5.2-29.4,22-9.7,40.5-23.6,54.3-41,24.3-30.7,33.9-70.8,28.5-119.3h0Zm-109.6,138.3c-2.3,14.9-5,30.3-7.9,45.9-12.7,68.5-28.2,136.3-45.4,203.6-22.6,88.4-45.4,106.4-128.2,107.6-40,.6-274.1,5.2-369.2,5.2s-29.9-.2-36-.5c-29.4-1.7-90.8-16.9-73.7-96.7,14.6-68.4-43-220.4-65-274.6-1.7-4.2,1.4-8.1,4.9-8.1s2.5,.5,3.6,1.6c34.2,34.9,109,134.8,112.5,258.5,1.2,43.8,12.2,51.3,41.8,51.3s9.1-.2,14.2-.4c89.4-4,178.9-4.6,268.5-4.6s74,0,110.9,0,40.9-9.8,61.3-50.9c0-.2,.2-.4,.2-.6,27-73.1,39.1-119.3,64.9-224,.9-3.6-1.5-7.1-4.9-7.2-13.6-.5-45.1-2.4-67.4-10.7-57.6-21.3-71.5-115.3,35-141.4,11.2-2.8,21.1-4.1,29.8-4.1,56.1,0,62.2,54.5,53.4,126.2,14.3-15,27.8-34.6,29.6-56.7,3.7-43.6-18.7-72.4-57-84.5-22.9-7.2-45.6-10.7-68.1-10.7-36,0-71.4,9.1-106.1,26.7-39.2,19.9-74.9,46.6-112.2,70.2-47.8,30.2-129.8,60.3-187.8,60.8-1.1,0-2.3,0-3.5,0-62.6,0-123.3-13.9-179.5-45.8-32-18.2-60-41.8-78.4-76.7-32.7-61.9-15.2-149.7,38.8-196.7,21.7-18.9,46-31.3,73.4-35.7,7.9-1.6,16-2.1,23.3-2.1,12.2,0,22.1,1.5,24.8,1.9,83,10.6,113.8,86,118.4,147.6,0,0-9.2-23-14.6-34-20.7-41.7-61.9-64.4-102.3-64.4s-58.2,11.9-78.5,37.2c-30.7,38.2-37.2,89.3,14.1,119.3,2.8,1.6,28.1,14.1,30.5,15.1,27.2,11.3,55.7,17.2,84.5,19.6,13.2,1.1,26.3,1.8,39.4,1.8,37.4,0,74.1-5.8,109.5-23.7,24.3-12.3,47.5-26.4,70.8-40.5,37.2-22.6,75-44,115.6-59.3-2.2-1.4-4.1-1.8-6.1-2-79.4-10.2-145.5-48.6-199.6-112.1-17.2-20.2-32.1-42.8-49.2-63.2-23-27.4-50.7-45.5-86-45.5s-1,0-1.5,0c-80.8,1.1-71.2,99.4-72.1,100.6-23.2-53.4-17.8-130.9,71.1-153.6,9.8-2.5,19.4-3.7,28.8-3.7,40.1,0,75.7,21.7,106.8,52.7,28.2,28.1,52.7,60.5,83.5,85.6,48.4,39.4,103.3,57.5,163,59.9,1.1,0,2.2,0,3.4,0,10.4,0,20.8-1.8,31.1-3.7,25.1-4.7,44-18.3,51.5-46.2,7.7-28.4,1.6-54.1-16.1-75.8-21.1-25.8-47.8-39-79.7-39s-3.2,0-4.8,.1c10.5-9.5,24.7-13.9,40.4-13.9,32.6,0,71.1,19.3,94.2,51.9,23.2,32.9,25.6,70.8,17,109.5-8.9,40.1-34.7,65.2-70.3,82.7,12.8,6.5,24.1,5.1,34.8,7.3,25.1,5.2,49.3,12.7,72.3,24.8,54.9,28.8,75.8,73.3,79.2,103.4,10.2,91-42.8,123.5-79.8,135h0Zm-165-131.3c-3.3,1.3-6.6,2.7-9.9,4.2,3.3-1.5,6.6-2.9,9.9-4.2h0Z"/><path class="cls-2" d="M2134.6,619.7c-.6,0-1.2,0-1.8,0-33.3,1.1-66.9,16.2-67.6,58.1-.6,38.5,34,62.8,91.7,62.8h.8c2.3,0,4.4-1.7,5-4.1,5.8-21,29.1-116.9-28.2-116.9h0Z"/></g><path d="M1943.1,753c-26.1,14.1-40.1,184.4-35.7,212.5,1.2,7.6,11.9,26.6,12.7,15.5,10.9-147.1,31.3-232.5,23-228.1Z"/><path d="M1733.6,787.9c-8.6,4.5,23.2,95.1,28.3,218.1,21.8-20.4,5.5-161-8.7-203.6-2.9-8.6-7.5-20.9-19.6-14.5Z"/></g><g><path class="cls-2" d="M357.9,1670.5h-30.8c-26.1-1.9-49.2-7.9-69.3-18.2-13.1-6.1-24.7-14-35-23.8-15.4-14.5-26.8-31.5-34.3-51.1-12.1-32.2-13.1-64.4-2.8-96.6,10.7-33.1,31-57.2,60.9-72.1,15.9-7.9,32.7-11.9,50.4-11.9s32.7,3.5,46.2,10.5c7.5,3.7,14.5,8.6,21,14.7,19.6,19.1,25.9,42.2,18.9,69.3-.9,5.1-3,10.7-6.3,16.8-11.2,22.9-28.7,36.9-52.5,42-2.8,.5-6.9,.7-12.2,.7s-9.4-.2-12.2-.7c-13.5-3.3-23.6-9.6-30.1-18.9-7-10.7-8.6-21.7-4.9-32.9,1.9-5.6,6.3-12.4,13.3-20.3,8.4-9.3,15.4-15.4,21-18.2,2.3-.9,4.4-1.4,6.3-1.4s3.5,.2,4.9,.7c4.2,2.8,5.1,6.8,2.8,11.9-.9,1.9-3.7,6.1-8.4,12.6-10.7,16.8-15.9,27.1-15.4,30.8,.9,4.7,4.2,8.4,9.8,11.2,7,3.3,15.2,3.5,24.5,.7,13.5-4.7,24-14,31.5-28,6.5-13.1,7.7-25.9,3.5-38.5-3.7-12.1-12.1-21.5-25.2-28-19.1-9.3-39.4-10.3-60.9-2.8-12.6,4.2-23.8,11.2-33.6,21-20.5,20.1-30.3,45.7-29.4,77,.5,12.6,2.6,24,6.3,34.3,2.8,7,6.1,13.5,9.8,19.6,5.6,8.9,12.8,16.8,21.7,23.8,28,22.9,64.2,31.5,108.5,25.9,24.7-2.8,47.4-11.2,67.9-25.2,22.4-14.9,35.9-33.4,40.6-55.3,1.9-9.3,1.9-19.1,0-29.4-5.6-30.8-22.9-61.8-51.8-93.1-13.1-14-35.5-33.1-67.2-57.4-14.9-11.7-25.9-20.5-32.9-26.6-11.2-9.3-20.1-18.2-26.6-26.6-15.9-19.6-25.4-40.4-28.7-62.3-1.4-8.9-1.6-18-.7-27.3,1.4-19.1,7-38,16.8-56.7,16.8-33.1,39.9-60.2,69.3-81.2,20.5-14.9,41.1-24,61.6-27.3,7-.9,14-1.2,21-.7,11.7,.5,22.4,3.3,32.2,8.4,9.8,5.1,18.5,11.8,26.2,19.9,7.7,8.2,14,18.1,18.9,29.8,4.9,11.7,8.3,24.5,10.1,38.5,3.3,24.3,1.4,49.2-5.6,74.9-7.9,28.9-19.4,53-34.3,72.1-5.1,6.5-10.3,11.9-15.4,16.1-8.9,6.5-17,9.8-24.5,9.8s-13.1-2.4-16.8-7.3c-3.7-4.9-4.9-11.1-3.5-18.6,.9-4.7,5.8-18.4,14.7-41.3,9.3-24.3,15.4-47.8,18.2-70.7,.5-3.3,.6-8.1,.4-14.3-.2-6.3-.6-10.8-1-13.7-3.3-22.4-11.2-34.5-23.8-36.4-7-.9-15.9,1.4-26.6,7-10.7,5.6-21.5,13.8-32.2,24.5-16.8,16.3-29.4,33.6-37.8,51.8-9.3,20.5-10,39-2.1,55.3,6.5,13.5,23.8,31,51.8,52.5,20.1,15.4,34.3,26.8,42.7,34.3,27.5,23.3,49.7,47.1,66.5,71.4,19.1,28.5,30.6,57.2,34.3,86.1,1.9,12.1,1.9,24.5,0,37.1-6.1,38.3-27.3,68.8-63.7,91.7-9.3,6.1-19.1,11-29.4,14.7-21,8.4-43.2,13.5-66.5,15.4h0Z"/><path class="cls-2" d="M769.5,1649.8c-24.7-2.3-45.7-17-63-44.1-5.1-7.9-9.6-16.8-13.3-26.6-1.4-4.2-2.1-6.5-2.1-7l-2.1,2.8c-4.7,11.2-10.7,21.7-18.2,31.5-11.7,15.4-25.4,23.8-41.3,25.2-13.5,1.4-26.4-2.6-38.5-11.9-7-5.1-13.8-11.9-20.3-20.3-12.6-16.8-22.2-38.5-28.7-65.1-3.3-13.5-5.1-28.2-5.6-44.1-.5-15.4,1.2-26.8,4.9-34.3,3.3-6.5,7.7-11.1,13.3-13.7,5.6-2.6,11.4-2.9,17.5-1.1,9.8,3.3,16.3,12.1,19.6,26.6,.5,3.7,1.6,13.8,3.5,30.1,2.8,34.1,7.5,59.3,14,75.6,4.7,13.1,10.7,21.5,18.2,25.2,1.9,.9,4,1.4,6.3,1.4s4.7-.7,7-2.1c8.4-4.2,17.3-14.9,26.6-32.2,5.1-9.3,8.6-16.3,10.5-21,1.9-4.7,2.8-7.5,2.8-8.4s-.5-4-1.4-9.1c-2.8-12.6-4.7-24-5.6-34.3-.9-4.7-1.4-11.9-1.4-21.7s.5-16.3,1.4-19.6c1.9-11.7,6.5-19.4,14-23.1,1.9-.9,4.2-1.4,7-1.4s5.4,.5,7.7,1.4c5.6,2.8,9.8,8.4,12.6,16.8,1.9,6.1,4.2,21.2,7,45.5,4.2,35.5,9.6,62.5,16.1,81.2,5.1,16.8,11.9,28.9,20.3,36.4,1.9,1.4,4.2,2.8,7,4.2,2.8,1.4,5.1,2.3,7,2.8,4.7,.9,9.6,.9,14.7,0,10.3-2.3,20.5-7.7,30.8-16.1,2.3-1.9,5.4-4.7,9.1-8.4,12.1-12.1,22.2-26.6,30.1-43.4,7-14,10-21.2,9.1-21.7l-6.3-2.1c-22.9-6.1-40.8-18.9-53.9-38.5-16.3-25.2-21.9-51.3-16.8-78.4,2.8-13.1,8-23.9,15.8-32.6,7.7-8.6,16.5-13.9,26.2-15.8,4.7-.5,9.1-.5,13.3,0,7,1.4,13.5,4.4,19.6,9.1,18.7,14,30.1,38,34.3,72.1,2.3,19.1,2.1,38.7-.7,58.8-.9,5.1-1.4,8.2-1.4,9.1v1.4h2.1c12.6-1.9,27.3-7.5,44.1-16.8,1.4-.9,3-1.9,4.9-2.8,7.5-4.7,12.8-4.2,16.1,1.4,2.8,4.7,1.9,8.4-2.8,11.2-5.1,3.7-10.5,7-16.1,9.8-16.3,7.9-32.9,12.8-49.7,14.7l-3.5,.7-3.5,10.5c-11.2,33.1-26.1,59.5-44.8,79.1-6.5,7-13.3,12.8-20.3,17.5-17.7,11.7-35.5,16.8-53.2,15.4h0Zm100.8-142.1c.9,0,1.9-1.6,2.8-4.9,7.5-33.6,7-63.2-1.4-88.9-1.9-6.5-4.4-12.4-7.7-17.5-3.3-5.1-7-9.2-11.2-12.2-4.2-3-8.4-4.8-12.6-5.2-5.6-.9-11.2,1.2-16.8,6.3-7.9,7.5-12.7,18.6-14.4,33.2-1.6,14.7,.4,28.8,6,42.3,7.5,18.7,19.8,32.4,37.1,41.3,8.9,4.2,14.9,6.1,18.2,5.6Z"/><path class="cls-2" d="M1157.3,1491.6c-2.8,6.1-8.8,16.3-17.9,30.8-9.1,14.5-23,32.2-41.6,53.2-18.7,21-37.1,37.1-55.3,48.3-27.1,15.4-50.3,19-69.6,10.8-19.4-8.2-33.2-26.9-41.6-56.3-3.7-13.5-5.6-28-5.6-43.4,0-23.3,4.7-45.3,14-65.8,12.1-26.1,28.7-44.7,49.7-55.7,21-11,40.1-11.3,57.4-1.1,5.1,3.3,9.8,7.5,14,12.6,4.2,5.1,7.4,10.7,9.5,16.8,2.1,6.1,3.6,12.4,4.5,18.9,.9,6.5,.5,12.6-1.4,18.2-3.3,21-14.6,40.2-34,57.8-19.4,17.5-41,30.2-64.8,38.2,1.4,7.9,3.5,14.9,6.3,21,4.7,9.3,13.1,14.2,25.2,14.7,12.1,.5,22.2-2.1,30.1-7.7,17.7-9.8,36.3-25.9,55.6-48.3,19.4-22.4,36.5-45,51.5-67.9,1.9-5.6,5.4-7.5,10.5-5.6,5.1,1.9,6.3,5.4,3.5,10.5h0Zm-114.1,7c4.7-9.3,5-18.9,1-28.7-4-9.8-11.3-13.8-22-11.9-12.6,1.9-23.6,11-32.9,27.3-3.7,6.5-7,14.5-9.8,23.8-5.1,16.3-7.2,33.1-6.3,50.4v.7c15.4-7.5,29.5-16.8,42.4-28,12.8-11.2,22-22.4,27.6-33.6h0Z"/><path class="cls-2" d="M1356.8,1491.6c-2.8,6.1-8.8,16.3-17.9,30.8-9.1,14.5-23,32.2-41.6,53.2-18.7,21-37.1,37.1-55.3,48.3-27.1,15.4-50.3,19-69.6,10.8-19.4-8.2-33.2-26.9-41.6-56.3-3.7-13.5-5.6-28-5.6-43.4,0-23.3,4.7-45.3,14-65.8,12.1-26.1,28.7-44.7,49.7-55.7,21-11,40.1-11.3,57.4-1.1,5.1,3.3,9.8,7.5,14,12.6,4.2,5.1,7.4,10.7,9.5,16.8,2.1,6.1,3.6,12.4,4.5,18.9,.9,6.5,.5,12.6-1.4,18.2-3.3,21-14.6,40.2-34,57.8-19.4,17.5-41,30.2-64.8,38.2,1.4,7.9,3.5,14.9,6.3,21,4.7,9.3,13.1,14.2,25.2,14.7,12.1,.5,22.2-2.1,30.1-7.7,17.7-9.8,36.3-25.9,55.6-48.3,19.4-22.4,36.5-45,51.5-67.9,1.9-5.6,5.4-7.5,10.5-5.6,5.1,1.9,6.3,5.4,3.5,10.5h0Zm-114.1,7c4.7-9.3,5-18.9,1-28.7-4-9.8-11.3-13.8-22-11.9-12.6,1.9-23.6,11-32.9,27.3-3.7,6.5-7,14.5-9.8,23.8-5.1,16.3-7.2,33.1-6.3,50.4v.7c15.4-7.5,29.5-16.8,42.4-28,12.8-11.2,22-22.4,27.6-33.6h0Z"/><path class="cls-2" d="M1451.3,1633.7c-8.9-.9-17.5-3.3-25.9-7-12.6-6.1-24.7-16.4-36.4-31.2-11.7-14.7-21.5-32.1-29.4-52.2-20.5-52.3-28.9-124.6-25.2-217,.9-23.8,2.3-45.5,4.2-65.1,.9-6.1,1.2-9.3,.7-9.8-.9-.9-8.9-1.4-23.8-1.4s-26.8,.2-35.7,.7c-43.9,3.3-75.8,10-95.9,20.3-10.3,5.6-18.8,13.2-25.5,22.8-6.8,9.6-13,14.3-18.5,14.3s-2.8-.2-4.2-.7c-3.7-1.9-6.3-5.6-7.7-11.2-2.3-8.4,.2-18.2,7.7-29.4,7.5-11.7,19.1-21.5,35-29.4,25.2-12.6,61.6-20.3,109.2-23.1,5.6-.5,15.2-.7,28.7-.7s23,.1,28.4,.3c5.4,.2,8.3,.2,8.8,0,.5-.2,.9-.8,1.4-1.8,.9-6.5,3.7-14.5,8.4-23.8,3.3-7,6.8-12.4,10.5-16.1,9.3-8.9,19.1-10.7,29.4-5.6,4.2,2.3,7.5,6.1,9.8,11.2,4.2,8.4,6.3,20.8,6.3,37.1s.2,5.7,.7,5.9c.5,.2,3.5,.8,9.1,1.8,10.3,1.4,26.4,3.7,48.3,7,27.1,4.2,48.3,7.2,63.7,9.1,5.6,.5,8.6,.7,9.1,.7s.9-.9,1.4-2.8c2.3-13.5,12.1-25.9,29.4-37.1,16.8-11.2,36.4-17.5,58.8-18.9,21-1.4,37.1,3.7,48.3,15.4,5.6,6.1,8.9,13.1,9.8,21,.9,7-.2,13.8-3.5,20.3-3.7,7.5-9.3,13.8-16.8,18.9-14.5,9.3-34.1,15.2-58.8,17.5-22.4,2.3-52,1.9-88.9-1.4-14-1.4-39.2-4.7-75.6-9.8-24.3-3.3-36.6-4.7-37.1-4.2s-.7,3.5-.7,9.1c-.5,7-1.9,22.9-4.2,47.6-2.8,32.2-4.4,59.7-4.9,82.6-.5,27.5,0,48.5,1.4,63,1.9,30.3,5.8,56.2,11.9,77.7,8.9,30.8,21.5,49.7,37.8,56.7,5.6,2.3,10.9,3.7,15.8,4.2,4.9,.5,9.6-.6,14-3.2,4.4-2.6,8.4-5.2,11.9-8.1s6.9-7.2,10.1-13.3c3.3-6.1,6.1-11.2,8.4-15.4,2.3-4.2,5-10.5,8-18.9,3-8.4,5.4-14.9,7-19.6,1.6-4.7,3.9-11.4,6.6-20.3,1.9-5.6,3-9.8,3.5-12.6,2.8-5.1,6.9-8.4,12.2-9.8,5.4-1.4,9.6-.1,12.6,3.8,3,4,3.1,9.7,.4,17.2-5.6,18.7-11.3,35.2-17.1,49.7-5.8,14.5-13.2,28.9-22,43.4-8.9,14.5-19.4,25.3-31.5,32.6-12.1,7.2-25.2,10.2-39.2,8.8h0Zm109.9-392c1.9,.5,9.7,.7,23.5,.7s24.1-.2,31.1-.7c5.6,0,10.3-.2,14-.7,8.4-.9,15.8-2.6,22-4.9,6.3-2.3,11.2-5,14.7-8.1,3.5-3,5.2-6.2,5.2-9.4,0-4.7-3-8.9-9.1-12.6-5.6-3.3-13.5-5.1-23.8-5.6-17.7-.9-35,3.7-51.8,14-9.3,5.6-17,12.6-23.1,21-2.8,3.7-3.7,5.8-2.8,6.3h0Z"/><path class="cls-2" d="M1881.2,1313.1c-.5-3.7-2.5-7.2-6-10.5-3.5-3.3-7.7-5.5-12.6-6.7-4.9-1.2-9.8-1.4-14.7-.7-4.9,.7-9.7,2.9-14.4,6.7-4.7,3.7-7.9,8.9-9.8,15.4-4.7,12.6-4.8,26.5-.4,41.7,4.4,15.2,13,28.3,25.5,39.6,6.5,0,14.5,1.9,23.8,5.6,4.2,1.4,6.5,4,7,7.7,.5,3.7-2.6,5.8-9.1,6.3-10.3,0-20.1-2.3-29.4-7-14.5,2.3-25.1,11.6-31.9,27.7-6.8,16.1-9,34.5-6.6,55.3,2.3,20.8,8.4,39.8,18.2,57.1,8.9,16.8,20.4,29.1,34.6,36.8,14.2,7.7,27.2,8.1,38.9,1.1,10.3-6.1,17.5-15.6,21.7-28.7,4.2-13.1,5.6-26.4,4.2-39.9-.9-5.6-2.2-10.8-3.9-15.8-1.6-4.9-3.9-9.1-6.6-12.6s-6-5.8-9.5-7c-3.5-1.2-7.4-1.1-11.5,.3-4.7,1.9-5.7,7.6-3.1,17.2,2.6,9.6,2.7,15.1,.4,16.4-6.1,2.8-10.7-.9-14-11.2-6.1-17.7-1.9-34.8,12.6-51.1,7.5-8.9,17.3-16.1,29.4-21.7,.9-.5,3.1-1.4,6.6-2.8s6.2-2.6,8-3.5l7-3.5c2.8-1.4,5.2-2.9,7.4-4.6,2.1-1.6,3.9-3.4,5.2-5.2,6.5-7.5,7.8-16.3,3.9-26.6-4-10.3-11.5-14-22.8-11.2-3.3,.9-5.1-.2-5.6-3.5-.9-2.3,0-4.2,2.8-5.6,10.3-4.2,18.7-5,25.2-2.4,6.5,2.6,11.3,6.5,14.4,11.9,3,5.4,4.3,11.7,3.9,18.9-.5,7.2-2.8,13.7-7,19.2-1.9,2.3-4.1,4.4-6.6,6.3-2.6,1.9-5.6,3.8-9.1,5.9s-6.5,3.8-9.1,5.2c-2.6,1.4-6.2,3.2-10.9,5.2-4.7,2.1-7.9,3.6-9.8,4.6-8.9,4.2-16.5,9.8-22.8,16.8s-9.7,13.3-10.1,18.9c11.7-9.8,21.9-10.2,30.8-1.1,8.9,9.1,14.5,21.8,16.8,38.2,1.4,10.7,1.2,21.7-.7,32.9-1.9,11.2-6.1,22.4-12.6,33.6-6.5,11.2-14.9,20.1-25.2,26.6-16.8,11.2-35.8,12.6-57,4.2-21.2-8.4-38.1-25-50.8-49.7-10.7-21-16.9-43.4-18.5-67.2-1.6-23.8,2.8-44.8,13.3-63s26.7-28.2,48.6-30.1c-13.5-7-23.3-17.7-29.4-32.2-6.1-14.5-8.3-28.6-6.6-42.3,1.6-13.8,7.1-25.8,16.5-36.1,9.3-10.3,21.2-14.9,35.7-14,9.8,.9,18.8,4.6,27,10.8,8.2,6.3,12.7,13.7,13.6,22.1,.9,8.9-1.2,16.1-6.3,21.7-5.1,5.6-12.1,6.8-21,3.5-2.8-.9-3.7-2.8-2.8-5.6,.9-2.8,3-3.7,6.3-2.8,9.3,3.3,15.4,1.2,18.2-6.3,.9-2.8,1.2-5.8,.7-9.1h0Z"/><path class="cls-2" d="M2315.8,1669.5h-30.8c-26.1-1.9-49.2-7.9-69.3-18.2-13.1-6.1-24.7-14-35-23.8-15.4-14.5-26.8-31.5-34.3-51.1-12.1-32.2-13.1-64.4-2.8-96.6,10.7-33.1,31-57.2,60.9-72.1,15.9-7.9,32.7-11.9,50.4-11.9s32.7,3.5,46.2,10.5c7.5,3.7,14.5,8.6,21,14.7,19.6,19.1,25.9,42.2,18.9,69.3-.9,5.1-3,10.7-6.3,16.8-11.2,22.9-28.7,36.9-52.5,42-2.8,.5-6.9,.7-12.2,.7s-9.5-.2-12.2-.7c-13.5-3.3-23.6-9.6-30.1-18.9-7-10.7-8.6-21.7-4.9-32.9,1.9-5.6,6.3-12.4,13.3-20.3,8.4-9.3,15.4-15.4,21-18.2,2.3-.9,4.4-1.4,6.3-1.4s3.5,.2,4.9,.7c4.2,2.8,5.1,6.8,2.8,11.9-.9,1.9-3.7,6.1-8.4,12.6-10.7,16.8-15.9,27.1-15.4,30.8,.9,4.7,4.2,8.4,9.8,11.2,7,3.3,15.2,3.5,24.5,.7,13.5-4.7,24-14,31.5-28,6.5-13.1,7.7-25.9,3.5-38.5-3.7-12.1-12.1-21.5-25.2-28-19.1-9.3-39.4-10.3-60.9-2.8-12.6,4.2-23.8,11.2-33.6,21-20.5,20.1-30.3,45.7-29.4,77,.5,12.6,2.6,24,6.3,34.3,2.8,7,6.1,13.5,9.8,19.6,5.6,8.9,12.8,16.8,21.7,23.8,28,22.9,64.2,31.5,108.5,25.9,24.7-2.8,47.4-11.2,67.9-25.2,22.4-14.9,35.9-33.4,40.6-55.3,1.9-9.3,1.9-19.1,0-29.4-5.6-30.8-22.9-61.8-51.8-93.1-13.1-14-35.5-33.1-67.2-57.4-14.9-11.7-25.9-20.5-32.9-26.6-11.2-9.3-20.1-18.2-26.6-26.6-15.9-19.6-25.4-40.4-28.7-62.3-1.4-8.9-1.6-18-.7-27.3,1.4-19.1,7-38,16.8-56.7,16.8-33.1,39.9-60.2,69.3-81.2,20.5-14.9,41.1-24,61.6-27.3,7-.9,14-1.2,21-.7,11.7,.5,22.4,3.3,32.2,8.4,9.8,5.1,18.5,11.8,26.2,19.9,7.7,8.2,14,18.1,18.9,29.8,4.9,11.7,8.3,24.5,10.1,38.5,3.3,24.3,1.4,49.2-5.6,74.9-7.9,28.9-19.4,53-34.3,72.1-5.1,6.5-10.3,11.9-15.4,16.1-8.9,6.5-17,9.8-24.5,9.8s-13.1-2.4-16.8-7.3c-3.7-4.9-4.9-11.1-3.5-18.6,.9-4.7,5.8-18.4,14.7-41.3,9.3-24.3,15.4-47.8,18.2-70.7,.5-3.3,.6-8.1,.4-14.3-.2-6.3-.6-10.8-1-13.7-3.3-22.4-11.2-34.5-23.8-36.4-7-.9-15.9,1.4-26.6,7-10.7,5.6-21.5,13.8-32.2,24.5-16.8,16.3-29.4,33.6-37.8,51.8-9.3,20.5-10,39-2.1,55.3,6.5,13.5,23.8,31,51.8,52.5,20.1,15.4,34.3,26.8,42.7,34.3,27.5,23.3,49.7,47.1,66.5,71.4,19.1,28.5,30.6,57.2,34.3,86.1,1.9,12.1,1.9,24.5,0,37.1-6.1,38.3-27.3,68.8-63.7,91.7-9.3,6.1-19.1,11-29.4,14.7-21,8.4-43.2,13.5-66.5,15.4Z"/><path class="cls-2" d="M2518.8,1410.4c2.8-2.3,6.1-3.5,9.8-3.5s4.2,.5,5.6,1.4c4.7,2.3,7.9,6.8,9.8,13.3,1.4,6.5,1.4,19.8,0,39.9-.9,9.8-1.6,18.2-2.1,25.2-.9,9.8-1.6,20.3-2.1,31.5-5.1,60.2,.9,89.6,18.2,88.2,9.8-.5,21.9-14.2,36.4-41.3,14.5-27.1,26.8-53.7,37.1-79.8,1.4-4.7,5.1-5.8,11.2-3.5,6.1,1.9,7.5,6.1,4.2,12.6-19.6,47.6-37.5,82.9-53.5,106.1-16.1,23.1-33.7,34.4-52.9,33.9-20.5-.9-34.1-12.6-40.6-35-3.7-11.7-5.7-31-6-58.1-.2-27.1,1.8-53.9,6-80.5s10.5-43.4,18.9-50.4h0Zm-12.6-49.7c0-7,2.6-12.9,7.7-17.8,5.1-4.9,11.2-7.3,18.2-7.3s13.1,2.4,18.2,7.3c5.1,4.9,7.7,10.8,7.7,17.8s-2.6,12.9-7.7,17.8c-5.1,4.9-11.2,7.3-18.2,7.3s-9-1.2-13-3.5c-4-2.3-7.1-5.4-9.5-9.1-2.3-3.7-3.5-7.9-3.5-12.6Z"/><path class="cls-2" d="M2806.5,1438.4c-7.5-4.7-19.1,5.6-35,30.8-7.9,17.7-11.9,29.2-11.9,34.3s.2,4.9,.7,9.1c1.4,10.7,3,26.1,4.9,46.2,.5,3.7,.7,10,.7,18.9,0,18.2-1.2,30.3-3.5,36.4-1.4,4.7-4.2,7.5-8.4,8.4-6.5,1.9-12.1-.6-16.8-7.3-4.7-6.8-8.9-16.2-12.6-28.3-6.1-21-7.9-52.3-5.6-93.8,.9-24.3-1.9-36.4-8.4-36.4s-17.5,10.8-27.3,32.6c-9.8,21.7-14.2,39.6-13.3,53.6,0,8.9,.9,20.5,2.8,35,1.4,9.8,2.1,18,2.1,24.5s-1.4,14-4.2,16.8-6.3,4-10.5,3.5c-4.2-.5-8.9-3.5-14-9.1-8.9-10.3-16.1-25.4-21.7-45.5-4.2-14.5-7.2-30.6-9.1-48.3-.5-5.6-.7-14.3-.7-26.2s.2-20.4,.7-25.6c3.7-32.7,12.4-52.5,25.9-59.5,5.1-2.8,10.1-3.4,15-1.8,4.9,1.6,8.8,4.8,11.5,9.4,2.8,6.1,4.2,16.3,4.2,30.8v12.2c0,.2,.9-1.1,2.8-3.8,5.6-9.3,11.9-18.2,18.9-26.6,12.6-14.9,24.3-20.8,35-17.5,8.9,2.8,15.4,11.7,19.6,26.6,.9,2.8,2,7.3,3.1,13.7,1.2,6.3,1.9,9.2,2.1,8.8,.2-.5,1.5-2.8,3.9-7,7-14,16.1-26.4,27.3-37.1,8.4-7.9,15.9-12.6,22.4-14,8.9-1.9,16.3,1.9,22.4,11.2,7.9,11.2,13.1,28.5,15.4,51.8,.5,2.3,.8,9.6,1,21.7,.2,12.1,.8,24.5,1.8,37.1,.9,12.6,2.1,25.4,3.5,38.5,1.4,13.1,3.9,23.7,7.4,31.8,3.5,8.2,7.6,12.2,12.2,12.2s10.1-6.5,16.5-19.6c6.3-13.1,14.1-33,23.5-59.8,9.3-26.8,14.2-41.2,14.7-43.1,1.9-4.2,6.1-5.6,12.6-4.2,7,2.3,9.6,7.2,7.7,14.7-26.6,94.3-54.4,140.7-83.3,139.3-20.5-.5-34.3-11.9-41.3-34.3-3.3-10.7-5.5-28.3-6.6-52.8-1.2-24.5-1-46.6,.4-66.2,1.4-23.3-1.4-37.3-8.4-42h0Z"/><path class="cls-2" d="M2908.7,1483.9c-1.4-28-1.6-44.6-.7-49.7,.5-4.2,1.2-7.2,2.1-9.1,2.8-5.6,6.5-9.1,11.2-10.5,1.9-.5,4.4-.5,7.7,0,3.3,.5,6.1,1.4,8.4,2.8,5.6,3.7,10,10.3,13.3,19.6,.9,2.3,1.6,3.6,2.1,3.8,.5,.2,1.4-.3,2.8-1.8,6.1-7.9,14.2-14.9,24.5-21,18.2-11.2,35.9-15.6,53.2-13.3,11.7,1.4,22.2,6.3,31.5,14.7,5.1,4.7,9.6,10.5,13.3,17.5,7.9,14.5,12.6,32,14,52.5,.9,9.8,.7,20.8-.7,32.9-1.4,9.3-1.9,14-1.4,14,.9,0,10-2.8,27.3-8.4,12.1-4.2,23.3-8.9,33.6-14,8.4-3.7,14-2.8,16.8,2.8,2.8,5.1,.9,8.6-5.6,10.5-17.7,8.9-39.2,17.5-64.4,25.9-8.4,2.3-12.8,3.7-13.3,4.2-.5,.5-1.2,2.3-2.1,5.6-6.1,18.7-14.2,35-24.5,49-11.7,16.3-24,26.9-37.1,31.8-13.1,4.9-24.3,3.4-33.6-4.6-4.7-3.7-8.2-8.4-10.5-14-2.8-7.5-3.5-15.2-2.1-23.1,1.9-10.3,7.9-19.4,18.2-27.3,10.3-8.9,25.9-16.8,46.9-23.8,6.1-1.9,9.3-3,9.8-3.5s1.4-5.9,2.8-16.4,2.1-18.1,2.1-22.8c.5-11.2-.2-21.2-2.1-30.1-4.2-21.5-11.9-32.9-23.1-34.3-5.6-.9-12.6,.9-21,5.6-8.4,4.7-15.4,10.7-21,18.2-10.7,13.5-18.4,28.9-23.1,46.2-1.4,5.1-2.2,22.3-2.5,51.4-.2,29.2-.2,61.8,0,98,.2,36.2,.4,57.3,.4,63.3-1.4,76.1-5.1,122.5-11.2,139.3-3.7,10.3-10.5,14.7-20.3,13.3-8.9-1.4-14.5-7.7-16.8-18.9,0-1.4,.2-50.2,.7-146.3,.9-117.1-.9-193.9-5.6-230.3h0Zm93.8,138.6c1.9,0,3.7-.2,5.6-.7,10.3-5.1,20.1-17.5,29.4-37.1,4.2-8.9,6.1-13.8,5.6-14.7-.5-.5-4,.7-10.5,3.5-6.5,2.8-11.9,5.4-16.1,7.7-7.5,4.2-13.3,8.4-17.5,12.6-4.7,5.6-6.8,10.7-6.3,15.4,0,3.7,1.2,7,3.5,9.8,1.4,2.3,3.5,3.5,6.3,3.5h0Z"/><path class="cls-2" d="M3246.7,1654.7c-27.5-1.9-51.1-17.7-70.7-47.6-22.4-33.6-36.9-80-43.4-139.3-2.8-21.5-4-45.7-3.5-72.8,.5-22.9,1.9-43.9,4.2-63,6.1-52.7,17.7-98.5,35-137.2,8.9-20.1,18.9-36.6,30.1-49.7,11.2-13.1,22.9-21.2,35-24.5,6.5-1.4,12.6-1.4,18.2,0,12.6,2.8,22.6,12.1,30.1,28,11.7,24.3,14.9,56,9.8,95.2-6.1,46.7-24,95.9-53.9,147.7-17.3,29.4-32.7,50.9-46.2,64.4l-4.2,4.9v3.5c0,14.5,1.4,31,4.2,49.7,4.7,32.7,11.7,58.3,21,77,11.2,22.4,25.9,34.5,44.1,36.4,8.9,.5,17.1-3.7,24.9-12.6s13.9-20.7,18.5-35.3c4.7-14.7,8.5-29.2,11.5-43.4,3-14.2,5.2-27.9,6.6-40.9,0-4.7,2.2-7.6,6.6-8.8,4.4-1.2,8.6-.6,12.6,1.8,4,2.3,5.7,5.4,5.2,9.1-1.4,10.7-2.6,20.2-3.5,28.3-.9,8.2-2.7,18.2-5.2,30.1-2.6,11.9-5.2,22.3-8,31.2-2.8,8.9-6.8,18-11.9,27.3-5.1,9.3-10.7,16.9-16.8,22.8-6.1,5.8-13.4,10.5-22,14-8.6,3.5-18.1,4.8-28.4,3.8h0Zm-59.5-218.4c.5,0,2.1-2.1,4.9-6.3,26.1-39.7,45.5-75.6,58.1-107.8,21.5-53.7,28.2-100.6,20.3-140.7-2.8-14-6.8-23.8-11.9-29.4-3.7-4.2-7.7-5.1-11.9-2.8-14.9,7-28.7,42.9-41.3,107.8-9.3,44.3-15.2,90.5-17.5,138.6-.5,3.7-.7,9-.7,15.8v24.8h0Z"/><path class="cls-2" d="M3530.9,1491.6c-2.8,6.1-8.8,16.3-17.9,30.8-9.1,14.5-23,32.2-41.6,53.2-18.7,21-37.1,37.1-55.3,48.3-27.1,15.4-50.3,19-69.6,10.8-19.4-8.2-33.2-26.9-41.6-56.3-3.7-13.5-5.6-28-5.6-43.4,0-23.3,4.7-45.3,14-65.8,12.1-26.1,28.7-44.7,49.7-55.7,21-11,40.1-11.3,57.4-1.1,5.1,3.3,9.8,7.5,14,12.6,4.2,5.1,7.4,10.7,9.5,16.8,2.1,6.1,3.6,12.4,4.5,18.9,.9,6.5,.5,12.6-1.4,18.2-3.3,21-14.6,40.2-34,57.8-19.4,17.5-41,30.2-64.8,38.2,1.4,7.9,3.5,14.9,6.3,21,4.7,9.3,13.1,14.2,25.2,14.7,12.1,.5,22.2-2.1,30.1-7.7,17.7-9.8,36.3-25.9,55.6-48.3,19.4-22.4,36.5-45,51.5-67.9,1.9-5.6,5.4-7.5,10.5-5.6,5.1,1.9,6.3,5.4,3.5,10.5h0Zm-114.1,7c4.7-9.3,5-18.9,1-28.7-4-9.8-11.3-13.8-22-11.9-12.6,1.9-23.6,11-32.9,27.3-3.7,6.5-7,14.5-9.8,23.8-5.1,16.3-7.2,33.1-6.3,50.4v.7c15.4-7.5,29.5-16.8,42.4-28,12.8-11.2,22-22.4,27.6-33.6h0Z"/></g><g><path class="cls-2" d="M1248.4,1825l16.5,4.3c.3,3.4,.4,6.3,.4,8.8,0,13-4.7,23.3-14.1,31.1-9.4,7.8-21.9,11.6-37.7,11.6-39.5,0-59.3-22.2-59.3-66.7s5.8-38.2,17.3-51.3c11.5-13.1,26.5-19.7,45-19.7,28.8,0,43.3,13.9,43.3,41.6l-16.6,7.6c.2-3.9,.3-6.9,.3-9.1,0-19.7-7.9-29.5-23.6-29.5s-25,20.9-25,62.6,9.3,53.8,27.9,53.8,14.1-3.1,19.2-9.2,7.7-13.8,7.7-22.9-.4-7.3-1.3-13h0Z"/><path class="cls-2" d="M1420.2,1745.2v89.4c0,30.7-17,46-50.9,46s-50.7-15.3-50.7-46v-89.4h38.7v90.6c0,11.7,1.7,19.7,5,24,3.4,4.3,9.5,6.4,18.6,6.4,17.5,0,26.3-10.6,26.3-31.6v-89.4h13Z"/><path class="cls-2" d="M1481.2,1878.5v-133.3h57.5c32.6,0,48.9,13.1,48.9,39.2s-18.1,39.6-54.4,39.6h-13.4v54.6h-38.7Zm38.7-66.9h8.7c14.1,0,21.1-9.3,21.1-27.9s-7-26.2-21.1-26.2h-8.7v54.1h0Z"/><path class="cls-2" d="M1728.9,1825l16.5,4.3c.3,3.4,.4,6.3,.4,8.8,0,13-4.7,23.3-14.1,31.1-9.4,7.8-21.9,11.6-37.7,11.6-39.5,0-59.3-22.2-59.3-66.7s5.8-38.2,17.3-51.3c11.5-13.1,26.5-19.7,45-19.7,28.8,0,43.3,13.9,43.3,41.6l-16.6,7.6c.2-3.9,.3-6.9,.3-9.1,0-19.7-7.9-29.5-23.6-29.5s-25,20.9-25,62.6,9.3,53.8,27.9,53.8,14.1-3.1,19.2-9.2,7.7-13.8,7.7-22.9-.4-7.3-1.3-13h0Z"/><path class="cls-2" d="M1861,1745.2l37.1,133.3h-38.9l-7.9-28.9h-40.1l-8.5,28.9h-15.1l39.5-133.3h34Zm-46,91h32.7l-15.7-59.1-17,59.1h0Z"/><path class="cls-2" d="M2051.2,1745.2l-33.3,42.1,49.1,91.2h-43.1l-31.2-58.4-5.6,6.2v52.2h-38.7v-133.3h38.7v59.4l45.9-59.4h18.2Z"/><path class="cls-2" d="M2203.3,1745.2v13.4h-47.8v40.3h40.1v13.4h-40.1v52.8h55.9v13.4h-94.5v-133.3h86.4Z"/><path class="cls-2" d="M2263.5,1878.5v-133.3h57.3c14.9,0,26.8,3.1,35.7,9.4,8.9,6.3,13.4,14.7,13.4,25.2,0,16.2-9.6,26.7-28.7,31.5,9.8,3.7,16.2,7.7,19.1,12s4.9,12.8,5.9,25.4c1.2,15,3.7,24.9,7.5,29.7h-42c-2.7-6.2-4-13.9-4-23.1l-.2-7.9-.2-10c0-15.4-6.2-23.1-18.5-23.1h-6.6v64.1h-38.7Zm38.7-75.1h7.8c14.6,0,22-7.7,22-22.9s-7.3-22.9-22-22.9h-7.8v45.9h0Z"/><path class="cls-2" d="M2523,1745.2l-32.5,84.1v49.2h-38.7v-49.2l-35.9-84.1h40.1l27.1,64.3,24.4-64.3h15.4Z"/></g><g><path class="cls-2" d="M359.9,1673.5h-30.8c-26.1-1.9-49.2-7.9-69.3-18.2-13.1-6.1-24.7-14-35-23.8-15.4-14.5-26.8-31.5-34.3-51.1-12.1-32.2-13.1-64.4-2.8-96.6,10.7-33.1,31-57.2,60.9-72.1,15.9-7.9,32.7-11.9,50.4-11.9s32.7,3.5,46.2,10.5c7.5,3.7,14.5,8.6,21,14.7,19.6,19.1,25.9,42.2,18.9,69.3-.9,5.1-3,10.7-6.3,16.8-11.2,22.9-28.7,36.9-52.5,42-2.8,.5-6.9,.7-12.2,.7s-9.4-.2-12.2-.7c-13.5-3.3-23.6-9.6-30.1-18.9-7-10.7-8.6-21.7-4.9-32.9,1.9-5.6,6.3-12.4,13.3-20.3,8.4-9.3,15.4-15.4,21-18.2,2.3-.9,4.4-1.4,6.3-1.4s3.5,.2,4.9,.7c4.2,2.8,5.1,6.8,2.8,11.9-.9,1.9-3.7,6.1-8.4,12.6-10.7,16.8-15.9,27.1-15.4,30.8,.9,4.7,4.2,8.4,9.8,11.2,7,3.3,15.2,3.5,24.5,.7,13.5-4.7,24-14,31.5-28,6.5-13.1,7.7-25.9,3.5-38.5-3.7-12.1-12.1-21.5-25.2-28-19.1-9.3-39.4-10.3-60.9-2.8-12.6,4.2-23.8,11.2-33.6,21-20.5,20.1-30.3,45.7-29.4,77,.5,12.6,2.6,24,6.3,34.3,2.8,7,6.1,13.5,9.8,19.6,5.6,8.9,12.8,16.8,21.7,23.8,28,22.9,64.2,31.5,108.5,25.9,24.7-2.8,47.4-11.2,67.9-25.2,22.4-14.9,35.9-33.4,40.6-55.3,1.9-9.3,1.9-19.1,0-29.4-5.6-30.8-22.9-61.8-51.8-93.1-13.1-14-35.5-33.1-67.2-57.4-14.9-11.7-25.9-20.5-32.9-26.6-11.2-9.3-20.1-18.2-26.6-26.6-15.9-19.6-25.4-40.4-28.7-62.3-1.4-8.9-1.6-18-.7-27.3,1.4-19.1,7-38,16.8-56.7,16.8-33.1,39.9-60.2,69.3-81.2,20.5-14.9,41.1-24,61.6-27.3,7-.9,14-1.2,21-.7,11.7,.5,22.4,3.3,32.2,8.4,9.8,5.1,18.5,11.8,26.2,19.9,7.7,8.2,14,18.1,18.9,29.8,4.9,11.7,8.3,24.5,10.1,38.5,3.3,24.3,1.4,49.2-5.6,74.9-7.9,28.9-19.4,53-34.3,72.1-5.1,6.5-10.3,11.9-15.4,16.1-8.9,6.5-17,9.8-24.5,9.8s-13.1-2.4-16.8-7.3c-3.7-4.9-4.9-11.1-3.5-18.6,.9-4.7,5.8-18.4,14.7-41.3,9.3-24.3,15.4-47.8,18.2-70.7,.5-3.3,.6-8.1,.4-14.3-.2-6.3-.6-10.8-1-13.7-3.3-22.4-11.2-34.5-23.8-36.4-7-.9-15.9,1.4-26.6,7-10.7,5.6-21.5,13.8-32.2,24.5-16.8,16.3-29.4,33.6-37.8,51.8-9.3,20.5-10,39-2.1,55.3,6.5,13.5,23.8,31,51.8,52.5,20.1,15.4,34.3,26.8,42.7,34.3,27.5,23.3,49.7,47.1,66.5,71.4,19.1,28.5,30.6,57.2,34.3,86.1,1.9,12.1,1.9,24.5,0,37.1-6.1,38.3-27.3,68.8-63.7,91.7-9.3,6.1-19.1,11-29.4,14.7-21,8.4-43.2,13.5-66.5,15.4h0Z"/><path class="cls-2" d="M771.5,1652.8c-24.7-2.3-45.7-17-63-44.1-5.1-7.9-9.6-16.8-13.3-26.6-1.4-4.2-2.1-6.5-2.1-7l-2.1,2.8c-4.7,11.2-10.7,21.7-18.2,31.5-11.7,15.4-25.4,23.8-41.3,25.2-13.5,1.4-26.4-2.6-38.5-11.9-7-5.1-13.8-11.9-20.3-20.3-12.6-16.8-22.2-38.5-28.7-65.1-3.3-13.5-5.1-28.2-5.6-44.1-.5-15.4,1.2-26.8,4.9-34.3,3.3-6.5,7.7-11.1,13.3-13.7,5.6-2.6,11.4-2.9,17.5-1.1,9.8,3.3,16.3,12.1,19.6,26.6,.5,3.7,1.6,13.8,3.5,30.1,2.8,34.1,7.5,59.3,14,75.6,4.7,13.1,10.7,21.5,18.2,25.2,1.9,.9,4,1.4,6.3,1.4s4.7-.7,7-2.1c8.4-4.2,17.3-14.9,26.6-32.2,5.1-9.3,8.6-16.3,10.5-21,1.9-4.7,2.8-7.5,2.8-8.4s-.5-4-1.4-9.1c-2.8-12.6-4.7-24-5.6-34.3-.9-4.7-1.4-11.9-1.4-21.7s.5-16.3,1.4-19.6c1.9-11.7,6.5-19.4,14-23.1,1.9-.9,4.2-1.4,7-1.4s5.4,.5,7.7,1.4c5.6,2.8,9.8,8.4,12.6,16.8,1.9,6.1,4.2,21.2,7,45.5,4.2,35.5,9.6,62.5,16.1,81.2,5.1,16.8,11.9,28.9,20.3,36.4,1.9,1.4,4.2,2.8,7,4.2,2.8,1.4,5.1,2.3,7,2.8,4.7,.9,9.6,.9,14.7,0,10.3-2.3,20.5-7.7,30.8-16.1,2.3-1.9,5.4-4.7,9.1-8.4,12.1-12.1,22.2-26.6,30.1-43.4,7-14,10-21.2,9.1-21.7l-6.3-2.1c-22.9-6.1-40.8-18.9-53.9-38.5-16.3-25.2-21.9-51.3-16.8-78.4,2.8-13.1,8-23.9,15.8-32.6,7.7-8.6,16.5-13.9,26.2-15.8,4.7-.5,9.1-.5,13.3,0,7,1.4,13.5,4.4,19.6,9.1,18.7,14,30.1,38,34.3,72.1,2.3,19.1,2.1,38.7-.7,58.8-.9,5.1-1.4,8.2-1.4,9.1v1.4h2.1c12.6-1.9,27.3-7.5,44.1-16.8,1.4-.9,3-1.9,4.9-2.8,7.5-4.7,12.8-4.2,16.1,1.4,2.8,4.7,1.9,8.4-2.8,11.2-5.1,3.7-10.5,7-16.1,9.8-16.3,7.9-32.9,12.8-49.7,14.7l-3.5,.7-3.5,10.5c-11.2,33.1-26.1,59.5-44.8,79.1-6.5,7-13.3,12.8-20.3,17.5-17.7,11.7-35.5,16.8-53.2,15.4h0Zm100.8-142.1c.9,0,1.9-1.6,2.8-4.9,7.5-33.6,7-63.2-1.4-88.9-1.9-6.5-4.4-12.4-7.7-17.5-3.3-5.1-7-9.2-11.2-12.2-4.2-3-8.4-4.8-12.6-5.2-5.6-.9-11.2,1.2-16.8,6.3-7.9,7.5-12.7,18.6-14.4,33.2-1.6,14.7,.4,28.8,6,42.3,7.5,18.7,19.8,32.4,37.1,41.3,8.9,4.2,14.9,6.1,18.2,5.6Z"/><path class="cls-2" d="M1159.3,1494.6c-2.8,6.1-8.8,16.3-17.9,30.8-9.1,14.5-23,32.2-41.6,53.2-18.7,21-37.1,37.1-55.3,48.3-27.1,15.4-50.3,19-69.6,10.8-19.4-8.2-33.2-26.9-41.6-56.3-3.7-13.5-5.6-28-5.6-43.4,0-23.3,4.7-45.3,14-65.8,12.1-26.1,28.7-44.7,49.7-55.7,21-11,40.1-11.3,57.4-1.1,5.1,3.3,9.8,7.5,14,12.6,4.2,5.1,7.4,10.7,9.5,16.8,2.1,6.1,3.6,12.4,4.5,18.9,.9,6.5,.5,12.6-1.4,18.2-3.3,21-14.6,40.2-34,57.8-19.4,17.5-41,30.2-64.8,38.2,1.4,7.9,3.5,14.9,6.3,21,4.7,9.3,13.1,14.2,25.2,14.7,12.1,.5,22.2-2.1,30.1-7.7,17.7-9.8,36.3-25.9,55.6-48.3,19.4-22.4,36.5-45,51.5-67.9,1.9-5.6,5.4-7.5,10.5-5.6,5.1,1.9,6.3,5.4,3.5,10.5h0Zm-114.1,7c4.7-9.3,5-18.9,1-28.7-4-9.8-11.3-13.8-22-11.9-12.6,1.9-23.6,11-32.9,27.3-3.7,6.5-7,14.5-9.8,23.8-5.1,16.3-7.2,33.1-6.3,50.4v.7c15.4-7.5,29.5-16.8,42.4-28,12.8-11.2,22-22.4,27.6-33.6h0Z"/><path class="cls-2" d="M1358.8,1494.6c-2.8,6.1-8.8,16.3-17.9,30.8-9.1,14.5-23,32.2-41.6,53.2-18.7,21-37.1,37.1-55.3,48.3-27.1,15.4-50.3,19-69.6,10.8-19.4-8.2-33.2-26.9-41.6-56.3-3.7-13.5-5.6-28-5.6-43.4,0-23.3,4.7-45.3,14-65.8,12.1-26.1,28.7-44.7,49.7-55.7,21-11,40.1-11.3,57.4-1.1,5.1,3.3,9.8,7.5,14,12.6,4.2,5.1,7.4,10.7,9.5,16.8,2.1,6.1,3.6,12.4,4.5,18.9,.9,6.5,.5,12.6-1.4,18.2-3.3,21-14.6,40.2-34,57.8-19.4,17.5-41,30.2-64.8,38.2,1.4,7.9,3.5,14.9,6.3,21,4.7,9.3,13.1,14.2,25.2,14.7,12.1,.5,22.2-2.1,30.1-7.7,17.7-9.8,36.3-25.9,55.6-48.3,19.4-22.4,36.5-45,51.5-67.9,1.9-5.6,5.4-7.5,10.5-5.6,5.1,1.9,6.3,5.4,3.5,10.5h0Zm-114.1,7c4.7-9.3,5-18.9,1-28.7-4-9.8-11.3-13.8-22-11.9-12.6,1.9-23.6,11-32.9,27.3-3.7,6.5-7,14.5-9.8,23.8-5.1,16.3-7.2,33.1-6.3,50.4v.7c15.4-7.5,29.5-16.8,42.4-28,12.8-11.2,22-22.4,27.6-33.6h0Z"/><path class="cls-2" d="M1453.3,1636.7c-8.9-.9-17.5-3.3-25.9-7-12.6-6.1-24.7-16.4-36.4-31.2-11.7-14.7-21.5-32.1-29.4-52.2-20.5-52.3-28.9-124.6-25.2-217,.9-23.8,2.3-45.5,4.2-65.1,.9-6.1,1.2-9.3,.7-9.8-.9-.9-8.9-1.4-23.8-1.4s-26.8,.2-35.7,.7c-43.9,3.3-75.8,10-95.9,20.3-10.3,5.6-18.8,13.2-25.5,22.8-6.8,9.6-13,14.3-18.5,14.3s-2.8-.2-4.2-.7c-3.7-1.9-6.3-5.6-7.7-11.2-2.3-8.4,.2-18.2,7.7-29.4,7.5-11.7,19.1-21.5,35-29.4,25.2-12.6,61.6-20.3,109.2-23.1,5.6-.5,15.2-.7,28.7-.7s23,.1,28.4,.3c5.4,.2,8.3,.2,8.8,0,.5-.2,.9-.8,1.4-1.8,.9-6.5,3.7-14.5,8.4-23.8,3.3-7,6.8-12.4,10.5-16.1,9.3-8.9,19.1-10.7,29.4-5.6,4.2,2.3,7.5,6.1,9.8,11.2,4.2,8.4,6.3,20.8,6.3,37.1s.2,5.7,.7,5.9c.5,.2,3.5,.8,9.1,1.8,10.3,1.4,26.4,3.7,48.3,7,27.1,4.2,48.3,7.2,63.7,9.1,5.6,.5,8.6,.7,9.1,.7s.9-.9,1.4-2.8c2.3-13.5,12.1-25.9,29.4-37.1,16.8-11.2,36.4-17.5,58.8-18.9,21-1.4,37.1,3.7,48.3,15.4,5.6,6.1,8.9,13.1,9.8,21,.9,7-.2,13.8-3.5,20.3-3.7,7.5-9.3,13.8-16.8,18.9-14.5,9.3-34.1,15.2-58.8,17.5-22.4,2.3-52,1.9-88.9-1.4-14-1.4-39.2-4.7-75.6-9.8-24.3-3.3-36.6-4.7-37.1-4.2s-.7,3.5-.7,9.1c-.5,7-1.9,22.9-4.2,47.6-2.8,32.2-4.4,59.7-4.9,82.6-.5,27.5,0,48.5,1.4,63,1.9,30.3,5.8,56.2,11.9,77.7,8.9,30.8,21.5,49.7,37.8,56.7,5.6,2.3,10.9,3.7,15.8,4.2,4.9,.5,9.6-.6,14-3.2,4.4-2.6,8.4-5.2,11.9-8.1s6.9-7.2,10.1-13.3c3.3-6.1,6.1-11.2,8.4-15.4,2.3-4.2,5-10.5,8-18.9,3-8.4,5.4-14.9,7-19.6,1.6-4.7,3.9-11.4,6.6-20.3,1.9-5.6,3-9.8,3.5-12.6,2.8-5.1,6.9-8.4,12.2-9.8,5.4-1.4,9.6-.1,12.6,3.8,3,4,3.1,9.7,.4,17.2-5.6,18.7-11.3,35.2-17.1,49.7-5.8,14.5-13.2,28.9-22,43.4-8.9,14.5-19.4,25.3-31.5,32.6-12.1,7.2-25.2,10.2-39.2,8.8h0Zm109.9-392c1.9,.5,9.7,.7,23.5,.7s24.1-.2,31.1-.7c5.6,0,10.3-.2,14-.7,8.4-.9,15.8-2.6,22-4.9,6.3-2.3,11.2-5,14.7-8.1,3.5-3,5.2-6.2,5.2-9.4,0-4.7-3-8.9-9.1-12.6-5.6-3.3-13.5-5.1-23.8-5.6-17.7-.9-35,3.7-51.8,14-9.3,5.6-17,12.6-23.1,21-2.8,3.7-3.7,5.8-2.8,6.3h0Z"/><path class="cls-2" d="M1883.2,1316.1c-.5-3.7-2.5-7.2-6-10.5-3.5-3.3-7.7-5.5-12.6-6.7-4.9-1.2-9.8-1.4-14.7-.7-4.9,.7-9.7,2.9-14.4,6.7-4.7,3.7-7.9,8.9-9.8,15.4-4.7,12.6-4.8,26.5-.4,41.7,4.4,15.2,13,28.3,25.5,39.6,6.5,0,14.5,1.9,23.8,5.6,4.2,1.4,6.5,4,7,7.7,.5,3.7-2.6,5.8-9.1,6.3-10.3,0-20.1-2.3-29.4-7-14.5,2.3-25.1,11.6-31.9,27.7-6.8,16.1-9,34.5-6.6,55.3,2.3,20.8,8.4,39.8,18.2,57.1,8.9,16.8,20.4,29.1,34.6,36.8,14.2,7.7,27.2,8.1,38.9,1.1,10.3-6.1,17.5-15.6,21.7-28.7,4.2-13.1,5.6-26.4,4.2-39.9-.9-5.6-2.2-10.8-3.9-15.8-1.6-4.9-3.9-9.1-6.6-12.6s-6-5.8-9.5-7c-3.5-1.2-7.4-1.1-11.5,.3-4.7,1.9-5.7,7.6-3.1,17.2,2.6,9.6,2.7,15.1,.4,16.4-6.1,2.8-10.7-.9-14-11.2-6.1-17.7-1.9-34.8,12.6-51.1,7.5-8.9,17.3-16.1,29.4-21.7,.9-.5,3.1-1.4,6.6-2.8s6.2-2.6,8-3.5l7-3.5c2.8-1.4,5.2-2.9,7.4-4.6,2.1-1.6,3.9-3.4,5.2-5.2,6.5-7.5,7.8-16.3,3.9-26.6-4-10.3-11.5-14-22.8-11.2-3.3,.9-5.1-.2-5.6-3.5-.9-2.3,0-4.2,2.8-5.6,10.3-4.2,18.7-5,25.2-2.4,6.5,2.6,11.3,6.5,14.4,11.9,3,5.4,4.3,11.7,3.9,18.9-.5,7.2-2.8,13.7-7,19.2-1.9,2.3-4.1,4.4-6.6,6.3-2.6,1.9-5.6,3.8-9.1,5.9s-6.5,3.8-9.1,5.2c-2.6,1.4-6.2,3.2-10.9,5.2-4.7,2.1-7.9,3.6-9.8,4.6-8.9,4.2-16.5,9.8-22.8,16.8s-9.7,13.3-10.1,18.9c11.7-9.8,21.9-10.2,30.8-1.1,8.9,9.1,14.5,21.8,16.8,38.2,1.4,10.7,1.2,21.7-.7,32.9-1.9,11.2-6.1,22.4-12.6,33.6-6.5,11.2-14.9,20.1-25.2,26.6-16.8,11.2-35.8,12.6-57,4.2-21.2-8.4-38.1-25-50.8-49.7-10.7-21-16.9-43.4-18.5-67.2-1.6-23.8,2.8-44.8,13.3-63s26.7-28.2,48.6-30.1c-13.5-7-23.3-17.7-29.4-32.2-6.1-14.5-8.3-28.6-6.6-42.3,1.6-13.8,7.1-25.8,16.5-36.1,9.3-10.3,21.2-14.9,35.7-14,9.8,.9,18.8,4.6,27,10.8,8.2,6.3,12.7,13.7,13.6,22.1,.9,8.9-1.2,16.1-6.3,21.7-5.1,5.6-12.1,6.8-21,3.5-2.8-.9-3.7-2.8-2.8-5.6,.9-2.8,3-3.7,6.3-2.8,9.3,3.3,15.4,1.2,18.2-6.3,.9-2.8,1.2-5.8,.7-9.1h0Z"/><path class="cls-2" d="M2317.8,1672.5h-30.8c-26.1-1.9-49.2-7.9-69.3-18.2-13.1-6.1-24.7-14-35-23.8-15.4-14.5-26.8-31.5-34.3-51.1-12.1-32.2-13.1-64.4-2.8-96.6,10.7-33.1,31-57.2,60.9-72.1,15.9-7.9,32.7-11.9,50.4-11.9s32.7,3.5,46.2,10.5c7.5,3.7,14.5,8.6,21,14.7,19.6,19.1,25.9,42.2,18.9,69.3-.9,5.1-3,10.7-6.3,16.8-11.2,22.9-28.7,36.9-52.5,42-2.8,.5-6.9,.7-12.2,.7s-9.5-.2-12.2-.7c-13.5-3.3-23.6-9.6-30.1-18.9-7-10.7-8.6-21.7-4.9-32.9,1.9-5.6,6.3-12.4,13.3-20.3,8.4-9.3,15.4-15.4,21-18.2,2.3-.9,4.4-1.4,6.3-1.4s3.5,.2,4.9,.7c4.2,2.8,5.1,6.8,2.8,11.9-.9,1.9-3.7,6.1-8.4,12.6-10.7,16.8-15.9,27.1-15.4,30.8,.9,4.7,4.2,8.4,9.8,11.2,7,3.3,15.2,3.5,24.5,.7,13.5-4.7,24-14,31.5-28,6.5-13.1,7.7-25.9,3.5-38.5-3.7-12.1-12.1-21.5-25.2-28-19.1-9.3-39.4-10.3-60.9-2.8-12.6,4.2-23.8,11.2-33.6,21-20.5,20.1-30.3,45.7-29.4,77,.5,12.6,2.6,24,6.3,34.3,2.8,7,6.1,13.5,9.8,19.6,5.6,8.9,12.8,16.8,21.7,23.8,28,22.9,64.2,31.5,108.5,25.9,24.7-2.8,47.4-11.2,67.9-25.2,22.4-14.9,35.9-33.4,40.6-55.3,1.9-9.3,1.9-19.1,0-29.4-5.6-30.8-22.9-61.8-51.8-93.1-13.1-14-35.5-33.1-67.2-57.4-14.9-11.7-25.9-20.5-32.9-26.6-11.2-9.3-20.1-18.2-26.6-26.6-15.9-19.6-25.4-40.4-28.7-62.3-1.4-8.9-1.6-18-.7-27.3,1.4-19.1,7-38,16.8-56.7,16.8-33.1,39.9-60.2,69.3-81.2,20.5-14.9,41.1-24,61.6-27.3,7-.9,14-1.2,21-.7,11.7,.5,22.4,3.3,32.2,8.4,9.8,5.1,18.5,11.8,26.2,19.9,7.7,8.2,14,18.1,18.9,29.8,4.9,11.7,8.3,24.5,10.1,38.5,3.3,24.3,1.4,49.2-5.6,74.9-7.9,28.9-19.4,53-34.3,72.1-5.1,6.5-10.3,11.9-15.4,16.1-8.9,6.5-17,9.8-24.5,9.8s-13.1-2.4-16.8-7.3c-3.7-4.9-4.9-11.1-3.5-18.6,.9-4.7,5.8-18.4,14.7-41.3,9.3-24.3,15.4-47.8,18.2-70.7,.5-3.3,.6-8.1,.4-14.3-.2-6.3-.6-10.8-1-13.7-3.3-22.4-11.2-34.5-23.8-36.4-7-.9-15.9,1.4-26.6,7-10.7,5.6-21.5,13.8-32.2,24.5-16.8,16.3-29.4,33.6-37.8,51.8-9.3,20.5-10,39-2.1,55.3,6.5,13.5,23.8,31,51.8,52.5,20.1,15.4,34.3,26.8,42.7,34.3,27.5,23.3,49.7,47.1,66.5,71.4,19.1,28.5,30.6,57.2,34.3,86.1,1.9,12.1,1.9,24.5,0,37.1-6.1,38.3-27.3,68.8-63.7,91.7-9.3,6.1-19.1,11-29.4,14.7-21,8.4-43.2,13.5-66.5,15.4Z"/><path class="cls-2" d="M2520.8,1413.4c2.8-2.3,6.1-3.5,9.8-3.5s4.2,.5,5.6,1.4c4.7,2.3,7.9,6.8,9.8,13.3,1.4,6.5,1.4,19.8,0,39.9-.9,9.8-1.6,18.2-2.1,25.2-.9,9.8-1.6,20.3-2.1,31.5-5.1,60.2,.9,89.6,18.2,88.2,9.8-.5,21.9-14.2,36.4-41.3,14.5-27.1,26.8-53.7,37.1-79.8,1.4-4.7,5.1-5.8,11.2-3.5,6.1,1.9,7.5,6.1,4.2,12.6-19.6,47.6-37.5,82.9-53.5,106.1-16.1,23.1-33.7,34.4-52.9,33.9-20.5-.9-34.1-12.6-40.6-35-3.7-11.7-5.7-31-6-58.1-.2-27.1,1.8-53.9,6-80.5s10.5-43.4,18.9-50.4h0Zm-12.6-49.7c0-7,2.6-12.9,7.7-17.8,5.1-4.9,11.2-7.3,18.2-7.3s13.1,2.4,18.2,7.3c5.1,4.9,7.7,10.8,7.7,17.8s-2.6,12.9-7.7,17.8c-5.1,4.9-11.2,7.3-18.2,7.3s-9-1.2-13-3.5c-4-2.3-7.1-5.4-9.5-9.1-2.3-3.7-3.5-7.9-3.5-12.6Z"/><path class="cls-2" d="M2808.5,1441.4c-7.5-4.7-19.1,5.6-35,30.8-7.9,17.7-11.9,29.2-11.9,34.3s.2,4.9,.7,9.1c1.4,10.7,3,26.1,4.9,46.2,.5,3.7,.7,10,.7,18.9,0,18.2-1.2,30.3-3.5,36.4-1.4,4.7-4.2,7.5-8.4,8.4-6.5,1.9-12.1-.6-16.8-7.3-4.7-6.8-8.9-16.2-12.6-28.3-6.1-21-7.9-52.3-5.6-93.8,.9-24.3-1.9-36.4-8.4-36.4s-17.5,10.8-27.3,32.6c-9.8,21.7-14.2,39.6-13.3,53.6,0,8.9,.9,20.5,2.8,35,1.4,9.8,2.1,18,2.1,24.5s-1.4,14-4.2,16.8-6.3,4-10.5,3.5c-4.2-.5-8.9-3.5-14-9.1-8.9-10.3-16.1-25.4-21.7-45.5-4.2-14.5-7.2-30.6-9.1-48.3-.5-5.6-.7-14.3-.7-26.2s.2-20.4,.7-25.6c3.7-32.7,12.4-52.5,25.9-59.5,5.1-2.8,10.1-3.4,15-1.8,4.9,1.6,8.8,4.8,11.5,9.4,2.8,6.1,4.2,16.3,4.2,30.8v12.2c0,.2,.9-1.1,2.8-3.8,5.6-9.3,11.9-18.2,18.9-26.6,12.6-14.9,24.3-20.8,35-17.5,8.9,2.8,15.4,11.7,19.6,26.6,.9,2.8,2,7.3,3.1,13.7,1.2,6.3,1.9,9.2,2.1,8.8,.2-.5,1.5-2.8,3.9-7,7-14,16.1-26.4,27.3-37.1,8.4-7.9,15.9-12.6,22.4-14,8.9-1.9,16.3,1.9,22.4,11.2,7.9,11.2,13.1,28.5,15.4,51.8,.5,2.3,.8,9.6,1,21.7,.2,12.1,.8,24.5,1.8,37.1,.9,12.6,2.1,25.4,3.5,38.5,1.4,13.1,3.9,23.7,7.4,31.8,3.5,8.2,7.6,12.2,12.2,12.2s10.1-6.5,16.5-19.6c6.3-13.1,14.1-33,23.5-59.8,9.3-26.8,14.2-41.2,14.7-43.1,1.9-4.2,6.1-5.6,12.6-4.2,7,2.3,9.6,7.2,7.7,14.7-26.6,94.3-54.4,140.7-83.3,139.3-20.5-.5-34.3-11.9-41.3-34.3-3.3-10.7-5.5-28.3-6.6-52.8-1.2-24.5-1-46.6,.4-66.2,1.4-23.3-1.4-37.3-8.4-42h0Z"/><path class="cls-2" d="M2910.7,1486.9c-1.4-28-1.6-44.6-.7-49.7,.5-4.2,1.2-7.2,2.1-9.1,2.8-5.6,6.5-9.1,11.2-10.5,1.9-.5,4.4-.5,7.7,0,3.3,.5,6.1,1.4,8.4,2.8,5.6,3.7,10,10.3,13.3,19.6,.9,2.3,1.6,3.6,2.1,3.8,.5,.2,1.4-.3,2.8-1.8,6.1-7.9,14.2-14.9,24.5-21,18.2-11.2,35.9-15.6,53.2-13.3,11.7,1.4,22.2,6.3,31.5,14.7,5.1,4.7,9.6,10.5,13.3,17.5,7.9,14.5,12.6,32,14,52.5,.9,9.8,.7,20.8-.7,32.9-1.4,9.3-1.9,14-1.4,14,.9,0,10-2.8,27.3-8.4,12.1-4.2,23.3-8.9,33.6-14,8.4-3.7,14-2.8,16.8,2.8,2.8,5.1,.9,8.6-5.6,10.5-17.7,8.9-39.2,17.5-64.4,25.9-8.4,2.3-12.8,3.7-13.3,4.2-.5,.5-1.2,2.3-2.1,5.6-6.1,18.7-14.2,35-24.5,49-11.7,16.3-24,26.9-37.1,31.8-13.1,4.9-24.3,3.4-33.6-4.6-4.7-3.7-8.2-8.4-10.5-14-2.8-7.5-3.5-15.2-2.1-23.1,1.9-10.3,7.9-19.4,18.2-27.3,10.3-8.9,25.9-16.8,46.9-23.8,6.1-1.9,9.3-3,9.8-3.5s1.4-5.9,2.8-16.4,2.1-18.1,2.1-22.8c.5-11.2-.2-21.2-2.1-30.1-4.2-21.5-11.9-32.9-23.1-34.3-5.6-.9-12.6,.9-21,5.6-8.4,4.7-15.4,10.7-21,18.2-10.7,13.5-18.4,28.9-23.1,46.2-1.4,5.1-2.2,22.3-2.5,51.4-.2,29.2-.2,61.8,0,98,.2,36.2,.4,57.3,.4,63.3-1.4,76.1-5.1,122.5-11.2,139.3-3.7,10.3-10.5,14.7-20.3,13.3-8.9-1.4-14.5-7.7-16.8-18.9,0-1.4,.2-50.2,.7-146.3,.9-117.1-.9-193.9-5.6-230.3h0Zm93.8,138.6c1.9,0,3.7-.2,5.6-.7,10.3-5.1,20.1-17.5,29.4-37.1,4.2-8.9,6.1-13.8,5.6-14.7-.5-.5-4,.7-10.5,3.5-6.5,2.8-11.9,5.4-16.1,7.7-7.5,4.2-13.3,8.4-17.5,12.6-4.7,5.6-6.8,10.7-6.3,15.4,0,3.7,1.2,7,3.5,9.8,1.4,2.3,3.5,3.5,6.3,3.5h0Z"/><path class="cls-2" d="M3248.7,1657.7c-27.5-1.9-51.1-17.7-70.7-47.6-22.4-33.6-36.9-80-43.4-139.3-2.8-21.5-4-45.7-3.5-72.8,.5-22.9,1.9-43.9,4.2-63,6.1-52.7,17.7-98.5,35-137.2,8.9-20.1,18.9-36.6,30.1-49.7,11.2-13.1,22.9-21.2,35-24.5,6.5-1.4,12.6-1.4,18.2,0,12.6,2.8,22.6,12.1,30.1,28,11.7,24.3,14.9,56,9.8,95.2-6.1,46.7-24,95.9-53.9,147.7-17.3,29.4-32.7,50.9-46.2,64.4l-4.2,4.9v3.5c0,14.5,1.4,31,4.2,49.7,4.7,32.7,11.7,58.3,21,77,11.2,22.4,25.9,34.5,44.1,36.4,8.9,.5,17.1-3.7,24.9-12.6s13.9-20.7,18.5-35.3c4.7-14.7,8.5-29.2,11.5-43.4,3-14.2,5.2-27.9,6.6-40.9,0-4.7,2.2-7.6,6.6-8.8,4.4-1.2,8.6-.6,12.6,1.8,4,2.3,5.7,5.4,5.2,9.1-1.4,10.7-2.6,20.2-3.5,28.3-.9,8.2-2.7,18.2-5.2,30.1-2.6,11.9-5.2,22.3-8,31.2-2.8,8.9-6.8,18-11.9,27.3-5.1,9.3-10.7,16.9-16.8,22.8-6.1,5.8-13.4,10.5-22,14-8.6,3.5-18.1,4.8-28.4,3.8h0Zm-59.5-218.4c.5,0,2.1-2.1,4.9-6.3,26.1-39.7,45.5-75.6,58.1-107.8,21.5-53.7,28.2-100.6,20.3-140.7-2.8-14-6.8-23.8-11.9-29.4-3.7-4.2-7.7-5.1-11.9-2.8-14.9,7-28.7,42.9-41.3,107.8-9.3,44.3-15.2,90.5-17.5,138.6-.5,3.7-.7,9-.7,15.8v24.8h0Z"/><path class="cls-2" d="M3532.9,1494.6c-2.8,6.1-8.8,16.3-17.9,30.8-9.1,14.5-23,32.2-41.6,53.2-18.7,21-37.1,37.1-55.3,48.3-27.1,15.4-50.3,19-69.6,10.8-19.4-8.2-33.2-26.9-41.6-56.3-3.7-13.5-5.6-28-5.6-43.4,0-23.3,4.7-45.3,14-65.8,12.1-26.1,28.7-44.7,49.7-55.7,21-11,40.1-11.3,57.4-1.1,5.1,3.3,9.8,7.5,14,12.6,4.2,5.1,7.4,10.7,9.5,16.8,2.1,6.1,3.6,12.4,4.5,18.9,.9,6.5,.5,12.6-1.4,18.2-3.3,21-14.6,40.2-34,57.8-19.4,17.5-41,30.2-64.8,38.2,1.4,7.9,3.5,14.9,6.3,21,4.7,9.3,13.1,14.2,25.2,14.7,12.1,.5,22.2-2.1,30.1-7.7,17.7-9.8,36.3-25.9,55.6-48.3,19.4-22.4,36.5-45,51.5-67.9,1.9-5.6,5.4-7.5,10.5-5.6,5.1,1.9,6.3,5.4,3.5,10.5h0Zm-114.1,7c4.7-9.3,5-18.9,1-28.7-4-9.8-11.3-13.8-22-11.9-12.6,1.9-23.6,11-32.9,27.3-3.7,6.5-7,14.5-9.8,23.8-5.1,16.3-7.2,33.1-6.3,50.4v.7c15.4-7.5,29.5-16.8,42.4-28,12.8-11.2,22-22.4,27.6-33.6h0Z"/></g><g><path class="cls-2" d="M1250.4,1828l16.5,4.3c.3,3.4,.4,6.3,.4,8.8,0,13-4.7,23.3-14.1,31.1-9.4,7.8-21.9,11.6-37.7,11.6-39.5,0-59.3-22.2-59.3-66.7s5.8-38.2,17.3-51.3c11.5-13.1,26.5-19.7,45-19.7,28.8,0,43.3,13.9,43.3,41.6l-16.6,7.6c.2-3.9,.3-6.9,.3-9.1,0-19.7-7.9-29.5-23.6-29.5s-25,20.9-25,62.6,9.3,53.8,27.9,53.8,14.1-3.1,19.2-9.2,7.7-13.8,7.7-22.9-.4-7.3-1.3-13h0Z"/><path class="cls-2" d="M1422.2,1748.2v89.4c0,30.7-17,46-50.9,46s-50.7-15.3-50.7-46v-89.4h38.7v90.6c0,11.7,1.7,19.7,5,24,3.4,4.3,9.5,6.4,18.6,6.4,17.5,0,26.3-10.6,26.3-31.6v-89.4h13Z"/><path class="cls-2" d="M1483.2,1881.5v-133.3h57.5c32.6,0,48.9,13.1,48.9,39.2s-18.1,39.6-54.4,39.6h-13.4v54.6h-38.7Zm38.7-66.9h8.7c14.1,0,21.1-9.3,21.1-27.9s-7-26.2-21.1-26.2h-8.7v54.1h0Z"/><path class="cls-2" d="M1730.9,1828l16.5,4.3c.3,3.4,.4,6.3,.4,8.8,0,13-4.7,23.3-14.1,31.1-9.4,7.8-21.9,11.6-37.7,11.6-39.5,0-59.3-22.2-59.3-66.7s5.8-38.2,17.3-51.3c11.5-13.1,26.5-19.7,45-19.7,28.8,0,43.3,13.9,43.3,41.6l-16.6,7.6c.2-3.9,.3-6.9,.3-9.1,0-19.7-7.9-29.5-23.6-29.5s-25,20.9-25,62.6,9.3,53.8,27.9,53.8,14.1-3.1,19.2-9.2,7.7-13.8,7.7-22.9-.4-7.3-1.3-13h0Z"/><path class="cls-2" d="M1863,1748.2l37.1,133.3h-38.9l-7.9-28.9h-40.1l-8.5,28.9h-15.1l39.5-133.3h34Zm-46,91h32.7l-15.7-59.1-17,59.1h0Z"/><path class="cls-2" d="M2053.2,1748.2l-33.3,42.1,49.1,91.2h-43.1l-31.2-58.4-5.6,6.2v52.2h-38.7v-133.3h38.7v59.4l45.9-59.4h18.2Z"/><path class="cls-2" d="M2205.3,1748.2v13.4h-47.8v40.3h40.1v13.4h-40.1v52.8h55.9v13.4h-94.5v-133.3h86.4Z"/><path class="cls-2" d="M2265.5,1881.5v-133.3h57.3c14.9,0,26.8,3.1,35.7,9.4,8.9,6.3,13.4,14.7,13.4,25.2,0,16.2-9.6,26.7-28.7,31.5,9.8,3.7,16.2,7.7,19.1,12s4.9,12.8,5.9,25.4c1.2,15,3.7,24.9,7.5,29.7h-42c-2.7-6.2-4-13.9-4-23.1l-.2-7.9-.2-10c0-15.4-6.2-23.1-18.5-23.1h-6.6v64.1h-38.7Zm38.7-75.1h7.8c14.6,0,22-7.7,22-22.9s-7.3-22.9-22-22.9h-7.8v45.9h0Z"/><path class="cls-2" d="M2525,1748.2l-32.5,84.1v49.2h-38.7v-49.2l-35.9-84.1h40.1l27.1,64.3,24.4-64.3h15.4Z"/></g></svg>